<?xml version="1.0" encoding="UTF-8"?>
<svg id="b" data-name="Layer 2" xmlns="http://www.w3.org/2000/svg" width="970" height="90" viewBox="0 0 970 90">
  <g id="c" data-name="cta">
    <path d="M886.02,24.93c0-.1,.08-.18,.18-.18h.64c.1,0,.18,.09,.18,.18v5.7h2.63c.11,0,.18,.09,.18,.18v.53c0,.1-.08,.18-.18,.18h-3.45c-.11,0-.18-.09-.18-.18v-6.41Z" fill="#fff"/>
    <path d="M892.52,26.96c1.16,0,2.04,.86,2.04,2.05,0,.08,0,.23-.02,.31,0,.12-.11,.19-.2,.19h-3.09c0,.6,.55,1.22,1.34,1.22,.51,0,.82-.18,1.09-.38,.1-.07,.18-.1,.26,.02l.26,.41c.08,.1,.12,.18-.02,.3-.32,.28-.91,.55-1.66,.55-1.36,0-2.24-1.07-2.24-2.34s.88-2.33,2.23-2.33Zm1.09,1.84c-.02-.54-.45-1.02-1.1-1.02-.71,0-1.13,.46-1.2,1.02h2.31Z" fill="#fff"/>
    <path d="M897.04,28.7c.46,0,.9,.14,.9,.14,.02-.71-.34-1.03-.9-1.03-.51,0-.83,.15-1.07,.21-.14,.03-.22-.06-.25-.18l-.09-.37c-.03-.16,.04-.22,.15-.26,.08-.03,.46-.25,1.28-.25,1.43,0,1.83,.86,1.83,1.98v2.44c0,.11-.08,.19-.2,.19-.35,0-.53-.21-.59-.52-.23,.23-.68,.59-1.41,.59-.84,0-1.44-.56-1.44-1.49,0-.82,.64-1.44,1.79-1.44Zm-.15,2.14c.45,0,.9-.32,1.04-.54v-.75c-.06-.04-.41-.16-.81-.16-.52,0-.92,.27-.92,.74,0,.4,.23,.71,.7,.71Z" fill="#fff"/>
    <path d="M900.21,27.21c0-.11,.08-.19,.2-.19,.35,0,.54,.24,.59,.56,.14-.17,.58-.62,1.33-.62,.43,0,.96,.12,.81,.42l-.23,.48c-.06,.13-.17,.15-.27,.11-.07-.04-.27-.09-.41-.09-.66,0-1.02,.52-1.06,.6v2.84c0,.19-.13,.21-.31,.21h-.45c-.12,0-.21-.1-.21-.21v-4.11Z" fill="#fff"/>
    <path d="M903.95,27.21c0-.11,.08-.19,.2-.19,.35,0,.53,.23,.58,.54,.38-.4,.94-.6,1.48-.6,1.37,0,1.73,.95,1.73,2.11v2.25c0,.12-.11,.21-.21,.21h-.54c-.12,0-.21-.1-.21-.21v-2.29c0-.73-.3-1.15-.88-1.15-.71,0-1.11,.49-1.18,.65v2.79c0,.15-.08,.21-.26,.21h-.49c-.12,0-.21-.1-.21-.21v-4.11Z" fill="#fff"/>
    <path d="M911.59,27.21c0-.11,.08-.19,.2-.19,.34,0,.53,.22,.58,.52,.16-.16,.62-.58,1.4-.58,.65,0,1.04,.25,1.37,.71,.13-.13,.66-.71,1.51-.71,1.37,0,1.71,.95,1.71,2.11v2.25c0,.12-.09,.21-.21,.21h-.54c-.14,0-.21-.1-.21-.21v-2.29c0-.72-.27-1.15-.88-1.15-.68,0-1,.46-1.08,.52,.02,.1,.04,.37,.04,.6v2.32c0,.12-.1,.21-.2,.21h-.55c-.13,0-.21-.1-.21-.21v-2.29c0-.73-.26-1.15-.88-1.15-.67,0-1.01,.49-1.06,.65v2.79c0,.12-.11,.21-.21,.21h-.54c-.12,0-.21-.1-.21-.21v-4.11Z" fill="#fff"/>
    <path d="M921.67,26.96c1.25,0,2.28,1.07,2.28,2.33s-1.03,2.35-2.28,2.35-2.29-1.08-2.29-2.35,1.03-2.33,2.29-2.33Zm0,3.76c.75,0,1.33-.61,1.33-1.43s-.58-1.41-1.33-1.41-1.34,.6-1.34,1.41,.58,1.43,1.34,1.43Z" fill="#fff"/>
    <path d="M925.03,27.21c0-.11,.08-.19,.2-.19,.35,0,.54,.24,.59,.56,.14-.17,.58-.62,1.33-.62,.43,0,.96,.12,.81,.42l-.23,.48c-.06,.13-.17,.15-.27,.11-.07-.04-.27-.09-.41-.09-.66,0-1.02,.52-1.06,.6v2.84c0,.19-.13,.21-.31,.21h-.45c-.12,0-.21-.1-.21-.21v-4.11Z" fill="#fff"/>
    <path d="M930.73,26.96c1.16,0,2.04,.86,2.04,2.05,0,.08,0,.23-.02,.31,0,.12-.11,.19-.2,.19h-3.09c0,.6,.55,1.22,1.34,1.22,.51,0,.82-.18,1.09-.38,.1-.07,.18-.1,.26,.02l.26,.41c.08,.1,.12,.18-.02,.3-.32,.28-.91,.55-1.66,.55-1.36,0-2.24-1.07-2.24-2.34s.88-2.33,2.23-2.33Zm1.09,1.84c-.02-.54-.45-1.02-1.1-1.02-.71,0-1.13,.46-1.2,1.02h2.31Z" fill="#fff"/>
    <path d="M886.08,15.81h46.08c6.78,0,12.27,5.49,12.27,12.27h0c0,6.78-5.49,12.27-12.27,12.27h-46.08c-6.78,0-12.27-5.49-12.27-12.27h0c0-6.78,5.49-12.27,12.27-12.27Z" fill="none" stroke="#fff" stroke-width="1.62"/>
  </g>
  <g id="d" data-name="rect">
    <rect width="970" height="90" fill="none"/>
  </g>
</svg>