<?xml version="1.0" encoding="UTF-8"?>
<svg id="b" data-name="Layer 2" xmlns="http://www.w3.org/2000/svg" width="970" height="250" viewBox="0 0 970 250">
  <g id="c" data-name="cta">
    <path d="M440.36,209.24c0-.13,.1-.25,.25-.25h.85c.13,0,.25,.12,.25,.25v7.6h3.5c.14,0,.25,.12,.25,.25v.71c0,.13-.1,.25-.25,.25h-4.6c-.14,0-.25-.12-.25-.25v-8.56Z" fill="#fff"/>
    <path d="M449.03,211.94c1.55,0,2.73,1.15,2.73,2.74,0,.1-.01,.31-.03,.41-.01,.15-.14,.26-.27,.26h-4.12c.01,.8,.74,1.63,1.78,1.63,.69,0,1.1-.25,1.46-.5,.13-.09,.25-.13,.35,.03l.35,.54c.1,.13,.16,.25-.03,.4-.43,.38-1.21,.74-2.21,.74-1.81,0-2.99-1.42-2.99-3.13s1.18-3.12,2.97-3.12Zm1.45,2.46c-.03-.72-.59-1.36-1.47-1.36-.94,0-1.51,.61-1.6,1.36h3.08Z" fill="#fff"/>
    <path d="M455.06,214.27c.62,0,1.2,.18,1.2,.18,.03-.94-.45-1.37-1.2-1.37-.69,0-1.11,.19-1.42,.28-.18,.04-.3-.08-.34-.25l-.12-.49c-.04-.21,.05-.3,.19-.35,.1-.04,.61-.34,1.71-.34,1.91,0,2.44,1.15,2.44,2.64v3.26c0,.14-.1,.26-.27,.26-.47,0-.71-.28-.79-.7-.31,.31-.9,.79-1.87,.79-1.12,0-1.93-.75-1.93-1.99,0-1.1,.85-1.92,2.39-1.92Zm-.19,2.86c.59,0,1.2-.43,1.38-.72v-1c-.08-.05-.54-.21-1.09-.21-.7,0-1.23,.36-1.23,.98,0,.53,.31,.94,.93,.94Z" fill="#fff"/>
    <path d="M459.28,212.28c0-.14,.1-.26,.27-.26,.47,0,.72,.32,.79,.75,.18-.23,.78-.83,1.77-.83,.57,0,1.28,.16,1.09,.56l-.31,.65c-.08,.17-.23,.21-.36,.14-.09-.05-.36-.12-.54-.12-.88,0-1.36,.7-1.41,.8v3.79c0,.26-.17,.28-.41,.28h-.59c-.16,0-.28-.13-.28-.28v-5.48Z" fill="#fff"/>
    <path d="M464.27,212.28c0-.14,.1-.26,.27-.26,.47,0,.71,.31,.78,.72,.5-.53,1.25-.8,1.98-.8,1.82,0,2.31,1.27,2.31,2.82v3c0,.16-.14,.28-.28,.28h-.72c-.16,0-.28-.13-.28-.28v-3.05c0-.97-.4-1.54-1.18-1.54-.94,0-1.49,.66-1.58,.87v3.72c0,.19-.1,.28-.35,.28h-.66c-.16,0-.28-.13-.28-.28v-5.48Z" fill="#fff"/>
    <path d="M474.46,212.28c0-.14,.1-.26,.27-.26,.45,0,.71,.3,.78,.7,.21-.21,.83-.78,1.86-.78,.87,0,1.38,.34,1.82,.94,.17-.17,.88-.94,2.02-.94,1.82,0,2.27,1.27,2.27,2.82v3c0,.16-.12,.28-.28,.28h-.72c-.18,0-.28-.13-.28-.28v-3.05c0-.96-.36-1.54-1.18-1.54-.9,0-1.33,.61-1.43,.7,.03,.13,.05,.49,.05,.8v3.09c0,.16-.13,.28-.27,.28h-.74c-.17,0-.28-.13-.28-.28v-3.05c0-.97-.35-1.54-1.18-1.54-.89,0-1.34,.66-1.41,.87v3.72c0,.16-.14,.28-.28,.28h-.72c-.16,0-.28-.13-.28-.28v-5.48Z" fill="#fff"/>
    <path d="M487.9,211.94c1.67,0,3.04,1.42,3.04,3.1s-1.37,3.14-3.04,3.14-3.05-1.43-3.05-3.14,1.37-3.1,3.05-3.1Zm0,5.01c1,0,1.77-.81,1.77-1.91s-.78-1.87-1.77-1.87-1.78,.8-1.78,1.87,.78,1.91,1.78,1.91Z" fill="#fff"/>
    <path d="M492.37,212.28c0-.14,.1-.26,.27-.26,.47,0,.72,.32,.79,.75,.18-.23,.78-.83,1.77-.83,.57,0,1.28,.16,1.09,.56l-.31,.65c-.08,.17-.23,.21-.36,.14-.09-.05-.36-.12-.54-.12-.88,0-1.36,.7-1.41,.8v3.79c0,.26-.17,.28-.41,.28h-.59c-.16,0-.28-.13-.28-.28v-5.48Z" fill="#fff"/>
    <path d="M499.97,211.94c1.55,0,2.73,1.15,2.73,2.74,0,.1-.01,.31-.03,.41-.01,.15-.14,.26-.27,.26h-4.12c.01,.8,.74,1.63,1.78,1.63,.69,0,1.1-.25,1.46-.5,.13-.09,.25-.13,.35,.03l.35,.54c.1,.13,.16,.25-.03,.4-.43,.38-1.21,.74-2.21,.74-1.81,0-2.99-1.42-2.99-3.13s1.18-3.12,2.97-3.12Zm1.45,2.46c-.03-.72-.59-1.36-1.47-1.36-.94,0-1.51,.61-1.6,1.36h3.08Z" fill="#fff"/>
    <path d="M440.27,197.08h61.77c8.94,0,16.19,7.25,16.19,16.19h0c0,8.94-7.25,16.19-16.19,16.19h-61.77c-8.94,0-16.19-7.25-16.19-16.19h0c0-8.94,7.25-16.19,16.19-16.19Z" fill="none" stroke="#fff" stroke-width="2.15"/>
  </g>
  <g id="d" data-name="rect">
    <rect width="970" height="250" fill="none"/>
  </g>
</svg>