<svg data-name="Layer 2" xmlns="http://www.w3.org/2000/svg" width="320" height="50">
  <defs>
    <clipPath id="a">
      <path fill="none" d="M278 10.18h30.98v30.98H278z"/>
    </clipPath>
  </defs>
  <g data-name="office-320x50">
    <path data-name="Background" fill="#041e41" d="M0 0h320v50H0z"/>
    <g data-name="Group 13972">
      <g data-name="Group 13971" clip-path="url(#a)">
        <path data-name="Path 35224" d="m294.08 18.3 7.08 7.37-6.78 7.66m-10.61-7.66h17.39m-22.4 0h0c0 8.14 6.6 14.73 14.73 14.73 8.14 0 14.73-6.6 14.73-14.73 0-8.14-6.6-14.73-14.73-14.73-8.13.02-14.71 6.61-14.73 14.73Z" fill="none" stroke="#fafafa" stroke-linecap="round" stroke-miterlimit="10"/>
      </g>
    </g>
    <g data-name="Logo" fill="#ffc220">
      <path data-name="Path 16828" d="M26.06 20.91c.62.07 1.2-.29 1.41-.87l.72-8.16c0-.81-.94-1.47-2.13-1.47s-2.13.66-2.13 1.47l.72 8.16c.21.58.79.94 1.41.87Z"/>
      <path data-name="Path 16829" d="M21.65 23.45c.37-.5.35-1.18-.05-1.66l-6.7-4.7c-.7-.4-1.74.08-2.34 1.11s-.49 2.17.21 2.58l7.42 3.46c.61.11 1.22-.22 1.46-.79Z"/>
      <path data-name="Path 16830" d="M30.47 23.45c.25.57.85.9 1.46.79l7.42-3.46c.7-.4.8-1.55.21-2.58s-1.64-1.51-2.34-1.11l-6.7 4.7c-.4.47-.42 1.16-.05 1.66Z"/>
      <path data-name="Path 16831" d="M26.06 31.1c.62-.07 1.2.29 1.41.87l.72 8.16c0 .81-.95 1.47-2.13 1.47s-2.13-.66-2.13-1.47l.72-8.16c.21-.58.8-.94 1.41-.87Z"/>
      <path data-name="Path 16832" d="M30.47 28.55c.24-.57.85-.9 1.46-.79l7.42 3.45c.7.4.8 1.55.21 2.58s-1.64 1.51-2.34 1.11l-6.7-4.7c-.4-.48-.42-1.16-.05-1.66Z"/>
      <path data-name="Path 16833" d="M21.65 28.55c.37.5.35 1.19-.05 1.66l-6.7 4.7c-.7.4-1.74-.08-2.34-1.11s-.49-2.18.21-2.58l7.42-3.45c.61-.11 1.22.22 1.46.79Z"/>
    </g>
    <g data-name="Layer 2">
      <path d="M57.9 18.86c.03-.13.16-.22.29-.22h.26c.11 0 .24.08.27.18l3.17 8.82h.08l3.12-8.82c.03-.1.16-.18.27-.18h.26c.13 0 .26.1.29.22l2.06 10.76c.05.22-.05.38-.29.38h-.64c-.13 0-.26-.11-.29-.22l-1.42-8.24h-.06l-2.95 8.45c-.03.1-.18.18-.27.18h-.29c-.1 0-.24-.08-.27-.18l-2.98-8.45h-.06l-1.39 8.24c-.02.11-.16.22-.29.22h-.64c-.24 0-.34-.16-.29-.38l2.06-10.76Zm15.09 3.59c1.94 0 3.35 1.42 3.35 3.36 0 .13-.02.32-.03.45-.02.19-.18.32-.34.32h-5.38c.03 1.23 1.07 2.53 2.42 2.53.98 0 1.58-.34 2-.61.26-.18.37-.24.56.05l.19.27c.14.22.21.3-.06.51-.45.35-1.42.85-2.71.85-2.24 0-3.59-1.76-3.59-3.87s1.34-3.86 3.59-3.86Zm2.16 3.18c-.03-1.09-.9-2.11-2.16-2.11s-2.24.96-2.38 2.11h4.55Zm6.24-3.18c1.94 0 3.35 1.42 3.35 3.36 0 .13-.02.32-.03.45-.02.19-.18.32-.34.32h-5.38c.03 1.23 1.07 2.53 2.42 2.53.98 0 1.58-.34 2-.61.26-.18.37-.24.56.05l.19.27c.14.22.21.3-.06.51-.45.35-1.42.85-2.71.85-2.24 0-3.59-1.76-3.59-3.87s1.34-3.86 3.59-3.86Zm2.16 3.18c-.03-1.09-.9-2.11-2.16-2.11s-2.24.96-2.38 2.11h4.55Zm2.62-2c-.22 0-.37-.16-.37-.35v-.32c0-.21.14-.35.37-.35h.98v-2.05c0-.19.18-.34.35-.35l.5-.03c.19-.02.34.16.34.35v2.08h2.18c.21 0 .37.14.37.35v.32c0 .19-.16.35-.37.35h-2.18V28c0 .77.48 1.1.99 1.1.45 0 .83-.14 1.14-.32.29-.18.4-.03.46.14l.13.32c.1.24.06.37-.13.48-.35.19-.99.45-1.74.45-1.3 0-2.03-1.02-2.03-2.18v-4.37h-.98Z" fill="#fafafa"/>
      <path d="M95.78 19.18c-.06-.22.06-.38.29-.38h.67c.13 0 .26.11.29.22l2.22 8.29h.06l2.67-8.5c.03-.1.13-.18.27-.18h.29c.13 0 .24.08.27.18l2.72 8.5h.06l2.18-8.29c.03-.11.16-.22.29-.22h.67c.22 0 .35.16.29.38l-3.03 10.76c-.03.13-.16.22-.29.22h-.26c-.11 0-.22-.08-.27-.18l-2.77-8.66h-.08l-2.72 8.66c-.05.1-.16.18-.27.18h-.26c-.13 0-.26-.1-.29-.22l-3.02-10.76Zm16.85 6.13c.78 0 1.58.24 1.58.24.02-1.36-.64-2.03-1.7-2.03-.82 0-1.38.32-1.71.43-.19.08-.29-.02-.35-.19l-.16-.43c-.06-.22.05-.32.22-.4.37-.16 1.04-.48 2.06-.48 1.89 0 2.77 1.12 2.77 3.1v4.23c0 .18-.11.29-.29.29-.48 0-.74-.37-.78-.87-.38.4-1.17.98-2.32.98-1.3 0-2.29-.93-2.29-2.42 0-1.41 1.06-2.45 2.96-2.45Zm-.46 3.79c.91 0 1.71-.51 2.03-.99v-1.5c-.24-.13-.83-.29-1.57-.29-1.02 0-1.79.5-1.79 1.44 0 .75.51 1.34 1.33 1.34Zm5.69-9.95c0-.18.16-.35.35-.35h.48c.18 0 .35.18.35.35v10.5c0 .19-.18.35-.35.35h-.48c-.19 0-.35-.16-.35-.35v-10.5Zm3.76 3.68c0-.18.11-.29.29-.29.46 0 .72.35.77.83.45-.45 1.22-.93 2.29-.93s1.7.4 2.18 1.17c.1-.06 1.15-1.17 2.64-1.17 2.15 0 2.66 1.39 2.66 3.3v3.91c0 .19-.16.35-.35.35h-.48c-.19 0-.35-.16-.35-.35v-3.91c0-1.38-.45-2.22-1.57-2.22-1.2 0-1.87.78-2.15 1.01.06.32.1.83.1 1.22v3.91c0 .19-.16.35-.35.35h-.48c-.18 0-.35-.16-.35-.35v-3.91c0-1.41-.46-2.22-1.66-2.22-1.31 0-1.98 1.02-1.98 1.02v5.11c0 .19-.18.35-.35.35H122c-.19 0-.35-.16-.35-.35v-6.82Zm15.62 2.48c.78 0 1.58.24 1.58.24.02-1.36-.64-2.03-1.7-2.03-.82 0-1.38.32-1.71.43-.19.08-.29-.02-.35-.19l-.16-.43c-.06-.22.05-.32.22-.4.37-.16 1.04-.48 2.06-.48 1.89 0 2.77 1.12 2.77 3.1v4.23c0 .18-.11.29-.29.29-.48 0-.74-.37-.78-.87-.38.4-1.17.98-2.32.98-1.3 0-2.29-.93-2.29-2.42 0-1.41 1.06-2.45 2.96-2.45Zm-.46 3.79c.91 0 1.71-.51 2.03-.99v-1.5c-.24-.13-.83-.29-1.57-.29-1.02 0-1.79.5-1.79 1.44 0 .75.51 1.34 1.33 1.34Zm5.61-6.27c0-.18.11-.29.29-.29.46 0 .72.35.77.83.4-.42 1.12-.93 2.27-.93.56 0 1.47.08 1.3.59l-.21.58c-.08.24-.26.26-.43.18-.18-.08-.45-.21-.8-.21-1.42 0-2 .94-2 .94v5.12c0 .19-.18.35-.35.35h-.48c-.19 0-.35-.16-.35-.35v-6.82Zm5.68.8c-.22 0-.37-.16-.37-.35v-.32c0-.21.14-.35.37-.35h.98v-2.05c0-.19.18-.34.35-.35l.5-.03c.19-.02.34.16.34.35v2.08h2.18c.21 0 .37.14.37.35v.32c0 .19-.16.35-.37.35h-2.18V28c0 .77.48 1.1.99 1.1.45 0 .83-.14 1.14-.32.29-.18.4-.03.46.14l.13.32c.1.24.06.37-.13.48-.35.19-.99.45-1.74.45-1.3 0-2.03-1.02-2.03-2.18v-4.37h-.98Zm16.23.69c.85.35 1.91 1.14 1.91 2.59 0 1.79-1.39 3.09-3.38 3.09h-3.76c-.18 0-.3-.14-.3-.3V19.1c0-.16.13-.3.3-.3h3.54c1.95 0 3.25 1.26 3.25 2.94 0 1.3-.82 2.1-1.55 2.55v.03Zm-1.55 4.61c1.3 0 2.11-.88 2.11-2.03s-.96-1.97-2.18-1.97h-2.75v4h2.82Zm-.35-5.11c1.31 0 2.1-.88 2.1-2s-.79-1.92-2.1-1.92h-2.43v3.92h2.43Zm5.77-.86c0-.18.14-.35.35-.35h.48c.19 0 .35.18.35.35v4c0 1.47.48 2.14 1.55 2.14s1.76-.69 2.1-1.07v-5.07c0-.18.14-.35.34-.35h.5c.18 0 .34.18.34.35v6.82c0 .18-.11.29-.29.29-.48 0-.74-.35-.78-.85-.43.45-1.11.96-2.29.96-2.13 0-2.64-1.28-2.64-3.23v-3.99Zm8.11 6.32c-.08-.08-.11-.19-.05-.32l.22-.42c.1-.18.22-.24.43-.1.26.19.9.66 1.84.66.75 0 1.26-.35 1.26-.93 0-.7-.58-.99-1.65-1.52-.98-.48-2.1-1.01-2.1-2.27 0-.77.58-1.94 2.29-1.94.96 0 1.76.32 2.11.58.16.13.19.29.08.5l-.16.3c-.11.21-.35.22-.51.13-.32-.19-.83-.43-1.52-.43-.82 0-1.09.46-1.09.82 0 .66.51.9 1.41 1.31 1.28.59 2.38 1.07 2.38 2.42 0 1.17-1.01 2.11-2.51 2.11-1.23 0-2.07-.54-2.45-.9Zm6.58-9.44c0-.51.38-.9.86-.9s.88.38.88.9c0 .46-.38.86-.88.86s-.86-.4-.86-.86Zm.3 3.12c0-.18.16-.35.35-.35h.48c.18 0 .35.18.35.35v6.69c0 .19-.18.35-.35.35h-.48c-.19 0-.35-.16-.35-.35v-6.69Zm3.68-.13c0-.18.11-.29.29-.29.46 0 .72.35.77.83.46-.4 1.33-.93 2.48-.93 2.14 0 2.67 1.39 2.67 3.3v3.91c0 .19-.18.35-.35.35h-.48c-.19 0-.35-.16-.35-.35v-4.07c0-1.41-.48-2.06-1.57-2.06-1.39 0-2.27 1.02-2.27 1.02v5.11c0 .19-.18.35-.35.35h-.48c-.19 0-.35-.16-.35-.35v-6.82Zm11.74-.38c1.94 0 3.35 1.42 3.35 3.36 0 .13-.02.32-.03.45-.02.19-.18.32-.34.32h-5.38c.03 1.23 1.07 2.53 2.42 2.53.98 0 1.59-.34 2-.61.26-.18.37-.24.56.05l.19.27c.14.22.21.3-.06.51-.45.35-1.42.85-2.71.85-2.24 0-3.59-1.76-3.59-3.87s1.35-3.86 3.59-3.86Zm2.16 3.18c-.03-1.09-.89-2.11-2.16-2.11s-2.24.96-2.38 2.11h4.54Zm2.74 3.65c-.08-.08-.11-.19-.05-.32l.22-.42c.1-.18.22-.24.43-.1.26.19.9.66 1.84.66.75 0 1.26-.35 1.26-.93 0-.7-.58-.99-1.65-1.52-.98-.48-2.1-1.01-2.1-2.27 0-.77.58-1.94 2.29-1.94.96 0 1.76.32 2.11.58.16.13.19.29.08.5l-.16.3c-.11.21-.35.22-.51.13-.32-.19-.83-.43-1.52-.43-.82 0-1.09.46-1.09.82 0 .66.51.9 1.41 1.31 1.28.59 2.38 1.07 2.38 2.42 0 1.17-1.01 2.11-2.51 2.11-1.23 0-2.07-.54-2.45-.9Zm6.49 0c-.08-.08-.11-.19-.05-.32l.22-.42c.1-.18.22-.24.43-.1.26.19.9.66 1.84.66.75 0 1.26-.35 1.26-.93 0-.7-.58-.99-1.65-1.52-.98-.48-2.1-1.01-2.1-2.27 0-.77.58-1.94 2.29-1.94.96 0 1.76.32 2.11.58.16.13.19.29.08.5l-.16.3c-.11.21-.35.22-.51.13-.32-.19-.83-.43-1.52-.43-.82 0-1.09.46-1.09.82 0 .66.51.9 1.41 1.31 1.28.59 2.38 1.07 2.38 2.42 0 1.17-1.01 2.11-2.51 2.11-1.23 0-2.07-.54-2.45-.9Z" fill="#57aeff"/>
    </g>
  </g>
</svg>
