<?xml version="1.0" encoding="UTF-8"?>
<svg id="b" data-name="Layer 2" xmlns="http://www.w3.org/2000/svg" width="300" height="600" viewBox="0 0 300 600">
  <g id="c" data-name="Layer 2">
    <g isolation="isolate">
      <path d="M40.75,562.98c0-.12,.09-.22,.22-.22h.77c.12,0,.22,.11,.22,.22v6.87h3.17c.13,0,.22,.11,.22,.22v.64c0,.12-.09,.22-.22,.22h-4.16c-.13,0-.22-.11-.22-.22v-7.74Z" fill="#fff"/>
      <path d="M48.6,565.43c1.4,0,2.47,1.04,2.47,2.48,0,.09-.01,.28-.02,.37-.01,.14-.13,.23-.25,.23h-3.73c.01,.73,.67,1.47,1.61,1.47,.62,0,.99-.22,1.32-.46,.12-.08,.22-.12,.32,.02l.32,.49c.09,.12,.14,.22-.02,.36-.39,.34-1.1,.67-2,.67-1.64,0-2.7-1.29-2.7-2.83s1.06-2.82,2.69-2.82Zm1.31,2.22c-.02-.65-.54-1.23-1.33-1.23-.85,0-1.37,.55-1.45,1.23h2.78Z" fill="#fff"/>
      <path d="M54.05,567.53c.56,0,1.09,.16,1.09,.16,.02-.85-.41-1.24-1.09-1.24-.62,0-1,.18-1.29,.26-.16,.04-.27-.07-.3-.22l-.11-.44c-.03-.19,.05-.27,.18-.32,.09-.04,.55-.3,1.54-.3,1.73,0,2.21,1.04,2.21,2.38v2.95c0,.13-.09,.23-.25,.23-.42,0-.64-.26-.71-.63-.28,.28-.82,.71-1.69,.71-1.02,0-1.74-.68-1.74-1.8,0-.99,.77-1.74,2.16-1.74Zm-.18,2.58c.54,0,1.09-.39,1.25-.65v-.9c-.07-.05-.49-.19-.98-.19-.63,0-1.11,.33-1.11,.89,0,.48,.28,.85,.84,.85Z" fill="#fff"/>
      <path d="M57.88,565.73c0-.13,.09-.23,.25-.23,.42,0,.65,.29,.71,.68,.16-.21,.7-.75,1.6-.75,.51,0,1.16,.14,.98,.5l-.28,.58c-.07,.15-.21,.19-.33,.13-.08-.05-.33-.11-.49-.11-.79,0-1.23,.63-1.27,.72v3.42c0,.23-.15,.26-.37,.26h-.54c-.14,0-.26-.12-.26-.26v-4.96Z" fill="#fff"/>
      <path d="M62.39,565.73c0-.13,.09-.23,.25-.23,.42,0,.64,.28,.7,.65,.46-.48,1.13-.72,1.79-.72,1.65,0,2.09,1.15,2.09,2.55v2.71c0,.14-.13,.26-.26,.26h-.65c-.14,0-.26-.12-.26-.26v-2.76c0-.88-.36-1.39-1.06-1.39-.85,0-1.34,.6-1.43,.78v3.37c0,.17-.09,.26-.32,.26h-.6c-.14,0-.26-.12-.26-.26v-4.96Z" fill="#fff"/>
      <path d="M71.6,565.73c0-.13,.09-.23,.25-.23,.41,0,.64,.27,.7,.63,.19-.19,.75-.7,1.68-.7,.78,0,1.25,.3,1.65,.85,.15-.15,.79-.85,1.82-.85,1.65,0,2.06,1.15,2.06,2.55v2.71c0,.14-.1,.26-.26,.26h-.65c-.16,0-.26-.12-.26-.26v-2.76c0-.87-.33-1.39-1.06-1.39-.82,0-1.2,.55-1.3,.63,.02,.12,.05,.44,.05,.72v2.79c0,.14-.12,.26-.25,.26h-.67c-.15,0-.26-.12-.26-.26v-2.76c0-.88-.32-1.39-1.06-1.39-.81,0-1.22,.6-1.27,.78v3.37c0,.14-.13,.26-.26,.26h-.65c-.14,0-.26-.12-.26-.26v-4.96Z" fill="#fff"/>
      <path d="M83.77,565.43c1.51,0,2.75,1.29,2.75,2.8s-1.24,2.84-2.75,2.84-2.76-1.3-2.76-2.84,1.24-2.8,2.76-2.8Zm0,4.54c.9,0,1.6-.74,1.6-1.73s-.7-1.69-1.6-1.69-1.61,.72-1.61,1.69,.7,1.73,1.61,1.73Z" fill="#fff"/>
      <path d="M87.81,565.73c0-.13,.09-.23,.25-.23,.42,0,.65,.29,.71,.68,.16-.21,.7-.75,1.6-.75,.51,0,1.16,.14,.98,.5l-.28,.58c-.07,.15-.21,.19-.33,.13-.08-.05-.33-.11-.49-.11-.79,0-1.23,.63-1.27,.72v3.42c0,.23-.15,.26-.37,.26h-.54c-.14,0-.26-.12-.26-.26v-4.96Z" fill="#fff"/>
      <path d="M94.69,565.43c1.4,0,2.47,1.04,2.47,2.48,0,.09-.01,.28-.02,.37-.01,.14-.13,.23-.25,.23h-3.73c.01,.73,.67,1.47,1.61,1.47,.62,0,.99-.22,1.32-.46,.12-.08,.22-.12,.32,.02l.32,.49c.09,.12,.14,.22-.02,.36-.39,.34-1.1,.67-2,.67-1.64,0-2.7-1.29-2.7-2.83s1.06-2.82,2.69-2.82Zm1.31,2.22c-.02-.65-.54-1.23-1.33-1.23-.85,0-1.37,.55-1.45,1.23h2.78Z" fill="#fff"/>
    </g>
    <rect x="25.97" y="551.97" width="85.29" height="29.54" rx="14.77" ry="14.77" fill="none" stroke="#fff" stroke-width="1.95"/>
  </g>
  <g id="d" data-name="rect">
    <rect width="300" height="600" fill="none"/>
  </g>
</svg>