<svg data-name="Layer 2" xmlns="http://www.w3.org/2000/svg" width="300" height="250">
  <path fill="#041e41" d="M0 0h300v250H0z" data-name="bg"/>
  <g data-name="Headline">
    <path d="M29.31 42.33h-4.18c-.26 0-.46-.22-.46-.46v-.7c0-.24.19-.46.46-.46h10.18c.26 0 .46.22.46.46v.7c0 .24-.19.46-.46.46h-4.18v14.74c0 .24-.22.46-.46.46h-.91c-.24 0-.46-.22-.46-.46V42.33Zm8.81-1.08c0-.26.24-.53.53-.53h.72c.26 0 .53.26.53.53v6.36s1.3-1.42 3.53-1.42c2.76 0 4.01 1.7 4.01 4.94v5.86c0 .29-.26.53-.53.53h-.74c-.29 0-.53-.24-.53-.53v-5.86c0-2.11-.62-3.34-2.33-3.34-2.11 0-3.41 1.58-3.41 1.58v7.61c0 .29-.26.53-.53.53h-.72c-.29 0-.53-.24-.53-.53V41.23Zm17.61 4.94c2.9 0 5.02 2.14 5.02 5.04 0 .19-.02.48-.05.67-.02.29-.26.48-.5.48h-8.06c.05 1.85 1.61 3.79 3.62 3.79 1.46 0 2.38-.5 3-.91.38-.26.55-.36.84.07l.29.41c.22.34.31.46-.1.77-.67.53-2.14 1.27-4.06 1.27-3.36 0-5.38-2.64-5.38-5.81s2.02-5.78 5.38-5.78Zm3.24 4.78c-.05-1.63-1.34-3.17-3.24-3.17s-3.36 1.44-3.58 3.17h6.82Zm9.27-9.68c-.1-.34.1-.58.43-.58h1.01c.19 0 .38.17.43.34l3.34 12.43h.1l4.01-12.75c.05-.14.19-.26.41-.26h.43c.19 0 .36.12.41.26l4.08 12.75h.1l3.26-12.43c.05-.17.24-.34.43-.34h1.01c.34 0 .53.24.43.58l-4.54 16.13c-.05.19-.24.34-.43.34h-.38c-.17 0-.34-.12-.41-.26l-4.15-12.98h-.12L74.01 57.5c-.07.14-.24.26-.41.26h-.38c-.19 0-.38-.14-.43-.34l-4.54-16.13Zm25.27 9.2c1.18 0 2.38.36 2.38.36.02-2.04-.96-3.05-2.54-3.05-1.22 0-2.06.48-2.57.65-.29.12-.43-.02-.53-.29l-.24-.65c-.1-.34.07-.48.34-.6.55-.24 1.56-.72 3.1-.72 2.83 0 4.15 1.68 4.15 4.66v6.34c0 .26-.17.43-.43.43-.72 0-1.1-.55-1.18-1.3-.58.6-1.75 1.46-3.48 1.46-1.94 0-3.43-1.39-3.43-3.62 0-2.11 1.58-3.67 4.44-3.67Zm-.7 5.69c1.37 0 2.57-.77 3.05-1.49v-2.26c-.36-.19-1.25-.43-2.35-.43-1.54 0-2.69.74-2.69 2.16 0 1.13.77 2.02 1.99 2.02Zm8.55-14.93c0-.26.24-.53.53-.53h.72c.26 0 .53.26.53.53V57c0 .29-.26.53-.53.53h-.72c-.29 0-.53-.24-.53-.53V41.25Zm5.64 5.52c0-.26.17-.43.43-.43.7 0 1.08.53 1.15 1.25.67-.67 1.82-1.39 3.43-1.39s2.54.6 3.26 1.75c.14-.1 1.73-1.75 3.96-1.75 3.22 0 3.98 2.09 3.98 4.94V57c0 .29-.24.53-.53.53h-.72c-.29 0-.53-.24-.53-.53v-5.86c0-2.06-.67-3.34-2.35-3.34-1.8 0-2.81 1.18-3.22 1.51.1.48.14 1.25.14 1.82v5.86c0 .29-.24.53-.53.53h-.72c-.26 0-.53-.24-.53-.53v-5.86c0-2.11-.7-3.34-2.5-3.34-1.97 0-2.98 1.54-2.98 1.54v7.66c0 .29-.26.53-.53.53h-.72c-.29 0-.53-.24-.53-.53V46.77Zm23.42 3.72c1.18 0 2.38.36 2.38.36.02-2.04-.96-3.05-2.54-3.05-1.22 0-2.06.48-2.57.65-.29.12-.43-.02-.53-.29l-.24-.65c-.1-.34.07-.48.34-.6.55-.24 1.56-.72 3.1-.72 2.83 0 4.15 1.68 4.15 4.66v6.34c0 .26-.17.43-.43.43-.72 0-1.1-.55-1.18-1.3-.58.6-1.75 1.46-3.48 1.46-1.94 0-3.43-1.39-3.43-3.62 0-2.11 1.58-3.67 4.44-3.67Zm-.7 5.69c1.37 0 2.57-.77 3.05-1.49v-2.26c-.36-.19-1.25-.43-2.35-.43-1.54 0-2.69.74-2.69 2.16 0 1.13.77 2.02 1.99 2.02Zm8.43-9.41c0-.26.17-.43.43-.43.7 0 1.08.53 1.15 1.25.6-.62 1.68-1.39 3.41-1.39.84 0 2.21.12 1.94.89l-.31.86c-.12.36-.38.38-.65.26s-.67-.31-1.2-.31c-2.14 0-3 1.42-3 1.42V57c0 .29-.26.53-.53.53h-.72c-.29 0-.53-.24-.53-.53V46.78Zm8.52 1.2c-.34 0-.55-.24-.55-.53v-.48c0-.31.22-.53.55-.53h1.46v-3.07c0-.29.26-.5.53-.53l.74-.05c.29-.02.5.24.5.53v3.12h3.26c.31 0 .55.22.55.53v.48c0 .29-.24.53-.55.53h-3.26v6.55c0 1.15.72 1.66 1.49 1.66.67 0 1.25-.22 1.7-.48.43-.26.6-.05.7.22l.19.48c.14.36.1.55-.19.72-.53.29-1.49.67-2.62.67-1.94 0-3.05-1.54-3.05-3.26v-6.55h-1.46Zm16.44 14.59 2.09-4.94-4.1-10.58c-.14-.36 0-.6.43-.6h1.01c.22 0 .41.12.48.31l3.14 8.81h.05l3.74-8.81c.07-.19.26-.31.48-.31h.89c.43 0 .6.26.43.62l-6.94 15.84c-.07.17-.29.34-.48.34h-.77c-.43 0-.62-.29-.46-.67Zm15.74-16.37c3.07 0 5.57 2.64 5.57 5.76s-2.5 5.83-5.57 5.83-5.57-2.66-5.57-5.83 2.5-5.76 5.57-5.76Zm0 9.99c2.18 0 3.79-1.92 3.79-4.22s-1.61-4.15-3.79-4.15-3.82 1.9-3.82 4.15 1.63 4.22 3.82 4.22Zm8.47-9.22c0-.26.22-.53.53-.53h.72c.29 0 .53.26.53.53v6c0 2.21.72 3.22 2.33 3.22s2.64-1.03 3.14-1.61v-7.61c0-.26.22-.53.5-.53h.74c.26 0 .5.26.5.53v10.22c0 .26-.17.43-.43.43-.72 0-1.1-.53-1.18-1.27-.65.67-1.66 1.44-3.43 1.44-3.19 0-3.96-1.92-3.96-4.85v-5.98Zm18.63-5.71c0-.26.24-.53.53-.53h.72c.26 0 .53.26.53.53V57c0 .29-.26.53-.53.53h-.72c-.29 0-.53-.24-.53-.53V41.25Zm10.48 4.94c3.07 0 5.57 2.64 5.57 5.76s-2.5 5.83-5.57 5.83-5.57-2.66-5.57-5.83 2.5-5.76 5.57-5.76Zm0 9.99c2.18 0 3.79-1.92 3.79-4.22s-1.61-4.15-3.79-4.15-3.82 1.9-3.82 4.15 1.63 4.22 3.82 4.22Zm7.06-9.12c-.17-.34 0-.62.41-.62h.84c.26 0 .43.12.5.31l3.43 8.16h.05l3.65-8.16c.07-.19.24-.31.43-.31h.77c.43 0 .58.29.43.62l-4.78 10.44c-.05.14-.19.29-.46.29h-.14c-.24 0-.41-.14-.46-.29l-4.68-10.44Zm17.4-.87c2.9 0 5.02 2.14 5.02 5.04 0 .19-.02.48-.05.67-.02.29-.26.48-.5.48h-8.06c.05 1.85 1.61 3.79 3.62 3.79 1.46 0 2.38-.5 3-.91.38-.26.55-.36.84.07l.29.41c.22.34.31.46-.1.77-.67.53-2.14 1.27-4.06 1.27-3.36 0-5.38-2.64-5.38-5.81s2.02-5.78 5.38-5.78Zm3.24 4.78c-.05-1.63-1.34-3.17-3.24-3.17s-3.36 1.44-3.58 3.17h6.82Zm5.52 3.91c1.18 0 1.8 1.18 1.8 2.64 0 1.75-.77 2.71-1.44 3.29-.14.12-.26.12-.38 0l-.41-.38c-.14-.14-.07-.31.05-.43.67-.67 1.08-1.22 1.08-2.14 0-.17-.02-.36-.1-.55-.17.12-.55.22-.79.22-.77 0-1.15-.65-1.15-1.18 0-.84.48-1.46 1.34-1.46Z" data-name="Text 1" fill="#57aeff"/>
    <path fill="#041e41" d="M0 67h300v183H0z" data-name="Mask 1"/>
    <path d="M25.92 76.77c0-.26.17-.43.43-.43.7 0 1.08.53 1.15 1.25.7-.6 1.99-1.39 3.72-1.39 3.22 0 4.01 2.09 4.01 4.94V87c0 .29-.26.53-.53.53h-.72c-.29 0-.53-.24-.53-.53v-6.1c0-2.11-.72-3.1-2.35-3.1-2.09 0-3.41 1.54-3.41 1.54V87c0 .29-.26.53-.53.53h-.72c-.29 0-.53-.24-.53-.53V76.78Zm17.79-.58c3.07 0 5.57 2.64 5.57 5.76s-2.5 5.83-5.57 5.83-5.57-2.66-5.57-5.83 2.5-5.76 5.57-5.76Zm0 9.99c2.18 0 3.79-1.92 3.79-4.22s-1.61-4.15-3.79-4.15-3.82 1.9-3.82 4.15 1.63 4.22 3.82 4.22Zm14.95-7.01L55.4 87.5c-.05.14-.19.29-.46.29h-.14c-.26 0-.41-.12-.48-.29l-3.07-10.44c-.1-.36 0-.62.43-.62h.82c.26 0 .46.12.5.31l2.04 7.54h.05l3.12-7.83c.05-.14.22-.26.48-.26h.14c.22 0 .41.12.46.26l3.1 7.85h.05l2.04-7.56c.05-.19.24-.31.46-.31h.84c.38 0 .5.26.38.62L63.14 87.5c-.05.17-.24.29-.46.29h-.14c-.24 0-.41-.14-.48-.29l-3.34-8.33h-.05Zm16.7-1.2h-1.78c-.29 0-.53-.24-.53-.53v-.48c0-.31.24-.53.53-.53h1.78v-1.75c0-2.76 1.3-4.2 3.7-4.2 1.51 0 2.54.67 3.05 1.15.17.17.22.46.1.62l-.46.58c-.19.26-.38.24-.7.02-.6-.43-1.1-.77-2.04-.77-1.27 0-1.87.94-1.87 2.59v1.75h3.29c.29 0 .53.22.53.53v.48c0 .29-.24.53-.53.53h-3.29v9.02c0 .29-.24.53-.53.53h-.72c-.29 0-.53-.24-.53-.53v-9.02Zm12.48-1.78c3.07 0 5.57 2.64 5.57 5.76s-2.5 5.83-5.57 5.83-5.57-2.66-5.57-5.83 2.5-5.76 5.57-5.76Zm0 9.99c2.18 0 3.79-1.92 3.79-4.22s-1.61-4.15-3.79-4.15-3.82 1.9-3.82 4.15 1.63 4.22 3.82 4.22Zm8.6-9.41c0-.26.17-.43.43-.43.7 0 1.08.53 1.15 1.25.6-.62 1.68-1.39 3.41-1.39.84 0 2.21.12 1.94.89l-.31.86c-.12.36-.38.38-.65.26s-.67-.31-1.2-.31c-2.14 0-3 1.42-3 1.42V87c0 .29-.26.53-.53.53h-.72c-.29 0-.53-.24-.53-.53V76.78Zm15.33 15.79 2.09-4.94-4.1-10.58c-.14-.36 0-.6.43-.6h1.01c.22 0 .41.12.48.31l3.14 8.81h.05l3.74-8.81c.07-.19.26-.31.48-.31h.89c.43 0 .6.26.43.62l-6.94 15.84c-.07.17-.29.34-.48.34h-.77c-.43 0-.62-.29-.46-.67Zm15.75-16.37c3.07 0 5.57 2.64 5.57 5.76s-2.5 5.83-5.57 5.83-5.57-2.66-5.57-5.83 2.5-5.76 5.57-5.76Zm0 9.99c2.18 0 3.79-1.92 3.79-4.22s-1.61-4.15-3.79-4.15-3.82 1.9-3.82 4.15 1.63 4.22 3.82 4.22Zm8.47-9.22c0-.26.22-.53.53-.53h.72c.29 0 .53.26.53.53v6c0 2.21.72 3.22 2.33 3.22s2.64-1.03 3.14-1.61v-7.61c0-.26.22-.53.5-.53h.74c.26 0 .5.26.5.53v10.22c0 .26-.17.43-.43.43-.72 0-1.1-.53-1.18-1.27-.65.67-1.66 1.44-3.43 1.44-3.19 0-3.96-1.92-3.96-4.85v-5.98Zm12.74-.19c0-.26.17-.43.43-.43.7 0 1.08.53 1.15 1.25.6-.62 1.68-1.39 3.41-1.39.84 0 2.21.12 1.94.89l-.31.86c-.12.36-.38.38-.65.26-.26-.12-.67-.31-1.2-.31-2.14 0-3 1.42-3 1.42V87c0 .29-.26.53-.53.53h-.72c-.29 0-.53-.24-.53-.53V76.78Z" data-name="Text 2" fill="#fafafa"/>
    <path fill="#041e41" d="M0 96.54h300V250H0z" data-name="Mask 2"/>
    <path d="M25.92 101.25c0-.26.22-.53.5-.53h.72c.26 0 .53.26.53.53v5.64s1.22-.7 3.07-.7c3.31 0 5.23 2.52 5.23 5.76s-2.14 5.83-4.97 5.83c-1.7 0-2.81-.74-3.5-1.42-.07.72-.46 1.25-1.15 1.25-.26 0-.43-.17-.43-.43v-15.94Zm1.75 13.11s1.15 1.82 3.14 1.82 3.36-2.04 3.36-4.2-1.27-4.18-3.7-4.18c-1.54 0-2.81.7-2.81.7v5.86Zm11.24-7.4c0-.26.22-.53.53-.53h.72c.29 0 .53.26.53.53v6c0 2.21.72 3.22 2.33 3.22s2.64-1.03 3.14-1.61v-7.61c0-.26.22-.53.5-.53h.74c.26 0 .5.26.5.53v10.22c0 .26-.17.43-.43.43-.72 0-1.1-.53-1.18-1.27-.65.67-1.66 1.44-3.43 1.44-3.19 0-3.96-1.92-3.96-4.85v-5.98Zm12.17 9.48c-.12-.12-.17-.29-.07-.48l.34-.62c.14-.26.34-.36.65-.14.38.29 1.34.98 2.76.98 1.13 0 1.9-.53 1.9-1.39 0-1.06-.86-1.49-2.47-2.28-1.46-.72-3.14-1.51-3.14-3.41 0-1.15.86-2.9 3.43-2.9 1.44 0 2.64.48 3.17.86.24.19.29.43.12.74l-.24.46c-.17.31-.53.34-.77.19-.48-.29-1.25-.65-2.28-.65-1.22 0-1.63.7-1.63 1.22 0 .98.77 1.34 2.11 1.97 1.92.89 3.58 1.61 3.58 3.62 0 1.75-1.51 3.17-3.77 3.17-1.85 0-3.1-.82-3.67-1.34Zm9.86-14.16c0-.77.58-1.34 1.3-1.34s1.32.58 1.32 1.34c0 .7-.58 1.3-1.32 1.3s-1.3-.6-1.3-1.3Zm.46 4.68c0-.26.24-.53.53-.53h.72c.26 0 .53.26.53.53v10.03c0 .29-.26.53-.53.53h-.72c-.29 0-.53-.24-.53-.53v-10.03Zm5.52-.19c0-.26.17-.43.43-.43.7 0 1.08.53 1.15 1.25.7-.6 1.99-1.39 3.72-1.39 3.22 0 4.01 2.09 4.01 4.94V117c0 .29-.26.53-.53.53h-.72c-.29 0-.53-.24-.53-.53v-6.1c0-2.11-.72-3.1-2.35-3.1-2.09 0-3.41 1.54-3.41 1.54V117c0 .29-.26.53-.53.53h-.72c-.29 0-.53-.24-.53-.53v-10.22Zm17.61-.58c2.9 0 5.02 2.14 5.02 5.04 0 .19-.02.48-.05.67-.02.29-.26.48-.5.48h-8.06c.05 1.85 1.61 3.79 3.62 3.79 1.46 0 2.38-.5 3-.91.38-.26.55-.36.84.07l.29.41c.22.34.31.46-.1.77-.67.53-2.14 1.27-4.06 1.27-3.36 0-5.38-2.64-5.38-5.81s2.02-5.78 5.38-5.78Zm3.24 4.78c-.05-1.63-1.34-3.17-3.24-3.17s-3.36 1.44-3.58 3.17h6.82Zm4.1 5.47c-.12-.12-.17-.29-.07-.48l.34-.62c.14-.26.34-.36.65-.14.38.29 1.34.98 2.76.98 1.13 0 1.9-.53 1.9-1.39 0-1.06-.86-1.49-2.47-2.28-1.46-.72-3.14-1.51-3.14-3.41 0-1.15.86-2.9 3.43-2.9 1.44 0 2.64.48 3.17.86.24.19.29.43.12.74l-.24.46c-.17.31-.53.34-.77.19-.48-.29-1.25-.65-2.28-.65-1.22 0-1.63.7-1.63 1.22 0 .98.77 1.34 2.11 1.97 1.92.89 3.58 1.61 3.58 3.62 0 1.75-1.51 3.17-3.77 3.17-1.85 0-3.1-.82-3.67-1.34Zm9.75 0c-.12-.12-.17-.29-.07-.48l.34-.62c.14-.26.34-.36.65-.14.38.29 1.34.98 2.76.98 1.13 0 1.9-.53 1.9-1.39 0-1.06-.86-1.49-2.47-2.28-1.46-.72-3.14-1.51-3.14-3.41 0-1.15.86-2.9 3.43-2.9 1.44 0 2.64.48 3.17.86.24.19.29.43.12.74l-.24.46c-.17.31-.53.34-.77.19-.48-.29-1.25-.65-2.28-.65-1.22 0-1.63.7-1.63 1.22 0 .98.77 1.34 2.11 1.97 1.92.89 3.58 1.61 3.58 3.62 0 1.75-1.51 3.17-3.77 3.17-1.85 0-3.1-.82-3.67-1.34Zm10.82-1.54c.82 0 1.44.62 1.44 1.42s-.62 1.46-1.44 1.46-1.42-.67-1.42-1.46.62-1.42 1.42-1.42Z" data-name="Text 3" fill="#fafafa"/>
    <path fill="#041e41" d="M0 126.88h300V250H0z" data-name="Mask 3"/>
  </g>
</svg>
