<?xml version="1.0" encoding="UTF-8"?>
<svg id="b" data-name="Layer 2" xmlns="http://www.w3.org/2000/svg" width="300" height="250" viewBox="0 0 300 250">
  <g id="c" data-name="rect">
    <rect width="300" height="250" fill="none"/>
  </g>
  <g id="d" data-name="Footer">
    <g id="e" data-name="CTA">
      <g id="f" data-name="cta-bg">
        <path d="M40,202.15h58c8.28,0,15,6.72,15,15h0c0,8.28-6.72,15-15,15H40c-8.28,0-15-6.72-15-15h0c0-8.28,6.72-15,15-15Z" fill="none" stroke="#fff" stroke-width="2"/>
      </g>
      <g id="g" data-name="cta-txt" isolation="isolate">
        <path d="M40.4,212.98c0-.12,.1-.23,.23-.23h.79c.12,0,.23,.11,.23,.23v7.05h3.25c.13,0,.23,.11,.23,.23v.66c0,.12-.1,.23-.23,.23h-4.27c-.13,0-.23-.11-.23-.23v-7.94Z" fill="#fff"/>
        <path d="M48.45,215.49c1.44,0,2.53,1.07,2.53,2.54,0,.1-.01,.29-.02,.38-.01,.14-.13,.24-.25,.24h-3.83c.01,.74,.68,1.51,1.66,1.51,.64,0,1.02-.23,1.35-.47,.12-.08,.23-.12,.32,.02l.32,.5c.1,.12,.14,.23-.02,.37-.4,.35-1.13,.68-2.05,.68-1.68,0-2.77-1.32-2.77-2.9s1.09-2.89,2.76-2.89Zm1.34,2.28c-.02-.67-.55-1.26-1.37-1.26-.88,0-1.4,.56-1.49,1.26h2.85Z" fill="#fff"/>
        <path d="M54.04,217.65c.58,0,1.12,.17,1.12,.17,.02-.88-.42-1.27-1.12-1.27-.64,0-1.03,.18-1.32,.26-.17,.04-.28-.07-.31-.23l-.11-.46c-.04-.19,.05-.28,.18-.32,.1-.04,.56-.31,1.58-.31,1.77,0,2.27,1.07,2.27,2.45v3.02c0,.13-.1,.24-.25,.24-.43,0-.66-.26-.73-.65-.29,.29-.84,.73-1.74,.73-1.04,0-1.79-.7-1.79-1.85,0-1.02,.79-1.79,2.22-1.79Zm-.18,2.65c.55,0,1.12-.4,1.28-.67v-.92c-.07-.05-.5-.19-1.01-.19-.65,0-1.14,.34-1.14,.91,0,.49,.29,.88,.86,.88Z" fill="#fff"/>
        <path d="M57.97,215.8c0-.13,.1-.24,.25-.24,.43,0,.67,.3,.73,.7,.17-.22,.72-.77,1.64-.77,.53,0,1.19,.14,1.01,.52l-.29,.6c-.07,.16-.22,.19-.34,.13-.08-.05-.34-.11-.5-.11-.82,0-1.26,.65-1.31,.74v3.51c0,.24-.16,.26-.38,.26h-.55c-.14,0-.26-.12-.26-.26v-5.08Z" fill="#fff"/>
        <path d="M62.6,215.8c0-.13,.1-.24,.25-.24,.43,0,.66,.29,.72,.67,.47-.49,1.16-.74,1.83-.74,1.69,0,2.15,1.18,2.15,2.62v2.78c0,.14-.13,.26-.26,.26h-.67c-.14,0-.26-.12-.26-.26v-2.83c0-.9-.37-1.43-1.09-1.43-.88,0-1.38,.61-1.46,.8v3.45c0,.18-.1,.26-.32,.26h-.61c-.14,0-.26-.12-.26-.26v-5.08Z" fill="#fff"/>
        <path d="M72.05,215.8c0-.13,.1-.24,.25-.24,.42,0,.66,.28,.72,.65,.19-.19,.77-.72,1.73-.72,.8,0,1.28,.31,1.69,.88,.16-.16,.82-.88,1.87-.88,1.69,0,2.11,1.18,2.11,2.62v2.78c0,.14-.11,.26-.26,.26h-.67c-.17,0-.26-.12-.26-.26v-2.83c0-.89-.34-1.43-1.09-1.43-.84,0-1.24,.56-1.33,.65,.02,.12,.05,.46,.05,.74v2.87c0,.14-.12,.26-.25,.26h-.68c-.16,0-.26-.12-.26-.26v-2.83c0-.9-.32-1.43-1.09-1.43-.83,0-1.25,.61-1.31,.8v3.45c0,.14-.13,.26-.26,.26h-.67c-.14,0-.26-.12-.26-.26v-5.08Z" fill="#fff"/>
        <path d="M84.53,215.49c1.55,0,2.82,1.32,2.82,2.88s-1.27,2.91-2.82,2.91-2.83-1.33-2.83-2.91,1.27-2.88,2.83-2.88Zm0,4.65c.92,0,1.64-.75,1.64-1.77s-.72-1.74-1.64-1.74-1.66,.74-1.66,1.74,.72,1.77,1.66,1.77Z" fill="#fff"/>
        <path d="M88.68,215.8c0-.13,.1-.24,.25-.24,.43,0,.67,.3,.73,.7,.17-.22,.72-.77,1.64-.77,.53,0,1.19,.14,1.01,.52l-.29,.6c-.07,.16-.22,.19-.34,.13-.08-.05-.34-.11-.5-.11-.82,0-1.26,.65-1.31,.74v3.51c0,.24-.16,.26-.38,.26h-.55c-.14,0-.26-.12-.26-.26v-5.08Z" fill="#fff"/>
        <path d="M95.74,215.49c1.44,0,2.53,1.07,2.53,2.54,0,.1-.01,.29-.02,.38-.01,.14-.13,.24-.25,.24h-3.83c.01,.74,.68,1.51,1.66,1.51,.64,0,1.02-.23,1.35-.47,.12-.08,.23-.12,.32,.02l.32,.5c.1,.12,.14,.23-.02,.37-.4,.35-1.13,.68-2.05,.68-1.68,0-2.77-1.32-2.77-2.9s1.09-2.89,2.76-2.89Zm1.34,2.28c-.02-.67-.55-1.26-1.37-1.26-.88,0-1.4,.56-1.49,1.26h2.85Z" fill="#fff"/>
      </g>
    </g>
    <g id="h" data-name="WB logo Lockup 142px">
      <path id="i" data-name="Rectangle 5554" d="M132.58,202.33h0c.23,0,.42,.19,.42,.42v6.97c0,.23-.19,.42-.42,.42h0c-.23,0-.42-.19-.42-.42v-6.97c0-.23,.19-.42,.42-.42Z" fill="#fafafa"/>
      <path id="j" data-name="Path 35373" d="M134.78,205.15c0-.1,.07-.19,.17-.2,0,0,.02,0,.02,0,.31,0,.48,.24,.51,.58,.45-.41,1.04-.64,1.66-.65,1.43,0,1.78,.97,1.78,2.3v2.72c0,.13-.1,.24-.23,.24h-.32c-.13,0-.24-.11-.23-.24v-2.84c0-.98-.32-1.44-1.05-1.44-.58,.02-1.13,.28-1.52,.71v3.56c0,.13-.1,.24-.23,.24h-.32c-.13,0-.24-.11-.23-.24v-4.75Z" fill="#fafafa"/>
      <path id="k" data-name="Path 35374" d="M140.16,205.7c-.13,0-.24-.1-.25-.23,0,0,0-.01,0-.02v-.22c0-.13,.09-.24,.22-.25,0,0,.02,0,.03,0h.65v-1.43c0-.13,.11-.23,.24-.25l.33-.02c.13,0,.23,.1,.23,.23,0,0,0,.01,0,.02v1.45h1.45c.13,0,.24,.1,.25,.23,0,0,0,.01,0,.02v.22c0,.14-.11,.25-.24,.25,0,0,0,0,0,0h-1.45v3.05c0,.53,.32,.77,.66,.77,.27,0,.53-.08,.76-.22,.19-.12,.27-.02,.31,.1l.09,.22c.06,.17,.04,.26-.09,.33-.36,.2-.76,.31-1.17,.31-.77-.01-1.38-.65-1.37-1.42,0-.03,0-.07,0-.1v-3.05h-.65Z" fill="#fafafa"/>
      <path id="l" data-name="Path 35375" d="M144.54,205.15c0-.1,.07-.19,.17-.2,0,0,.02,0,.02,0,.31,0,.48,.24,.51,.58,.39-.42,.94-.66,1.52-.65,.37,0,.98,.06,.87,.41l-.14,.4c-.02,.1-.11,.17-.21,.15-.03,0-.05-.02-.08-.03-.16-.09-.35-.14-.53-.15-.53-.02-1.03,.22-1.34,.66v3.57c0,.13-.1,.24-.24,.24h-.32c-.13,0-.24-.11-.24-.24v-4.75Z" fill="#fafafa"/>
      <path id="m" data-name="Path 35376" d="M150.66,204.88c1.42,.06,2.52,1.26,2.48,2.68,.12,1.37-.89,2.58-2.26,2.7-1.37,.12-2.58-.89-2.7-2.26-.01-.14-.01-.29,0-.43-.04-1.42,1.06-2.61,2.48-2.68m0,4.64c1-.07,1.76-.94,1.69-1.95,0,0,0-.01,0-.02,.12-.94-.54-1.79-1.47-1.92s-1.79,.54-1.92,1.47c-.02,.15-.02,.3,0,.44-.07,1.01,.68,1.89,1.69,1.96,0,0,0,0,0,0" fill="#fafafa"/>
      <path id="n" data-name="Path 35377" d="M156.52,204.88c.48,0,.94,.11,1.37,.32v-2.62c0-.13,.11-.24,.24-.25h.3c.13,0,.24,.11,.25,.25v7.41c0,.1-.07,.19-.17,.2,0,0-.02,0-.02,0-.31,0-.48-.24-.52-.58-.42,.4-.98,.63-1.56,.66-1.35-.15-2.34-1.35-2.21-2.71-.16-1.31,.78-2.5,2.09-2.66,.08,0,.17-.02,.25-.02m-.03,4.64c.57-.04,1.09-.35,1.4-.82v-2.78c-.4-.18-.83-.28-1.26-.29-.96,.05-1.7,.86-1.66,1.83,0,.04,0,.08,0,.11,0,1,.61,1.95,1.51,1.95" fill="#fafafa"/>
      <path id="o" data-name="Path 35378" d="M160.29,205.23c0-.13,.1-.24,.24-.24h.32c.13,0,.23,.11,.24,.24v2.79c0,1.03,.32,1.49,1.04,1.49,.56-.02,1.07-.3,1.4-.75v-3.54c0-.13,.1-.24,.22-.24h.33c.13,.01,.22,.12,.22,.24v4.75c0,.1-.07,.19-.17,.2,0,0-.02,0-.02,0-.32,0-.49-.24-.52-.59-.38,.44-.94,.69-1.53,.67-1.42,0-1.76-.89-1.76-2.25v-2.78Z" fill="#fafafa"/>
      <path id="p" data-name="Path 35379" d="M168.14,204.88c.7-.01,1.36,.3,1.8,.85,.09,.11,.08,.27-.03,.36,0,0,0,0-.01,.01l-.17,.17c-.16,.15-.26,.03-.35-.08-.3-.37-.76-.58-1.24-.56-1,.07-1.76,.94-1.69,1.94-.08,1,.66,1.87,1.66,1.95,.55,0,1.05-.28,1.35-.74,.14-.17,.28-.12,.42,.02l.06,.07c.11,.08,.14,.24,.06,.36-.41,.64-1.1,1.03-1.86,1.04-1.38,0-2.5-1.12-2.5-2.5,0-.06,0-.12,0-.19-.08-1.41,1-2.62,2.41-2.7,.03,0,.06,0,.09,0" fill="#fafafa"/>
      <path id="q" data-name="Path 35380" d="M171.1,203.06c-.02-.32,.22-.6,.54-.62,.32-.02,.6,.22,.62,.54,0,.03,0,.06,0,.08,.01,.32-.24,.59-.56,.61s-.59-.24-.61-.56c0-.02,0-.03,0-.05m.2,2.17c0-.13,.1-.24,.24-.25h.32c.13,.01,.23,.12,.24,.24v4.66c0,.13-.1,.24-.24,.24h-.32c-.13,0-.24-.11-.24-.24v-4.66Z" fill="#fafafa"/>
      <path id="r" data-name="Path 35381" d="M173.77,205.15c0-.1,.07-.19,.17-.2,0,0,.02,0,.02,0,.31,0,.48,.24,.51,.58,.45-.41,1.04-.64,1.66-.65,1.43,0,1.79,.97,1.79,2.3v2.72c0,.13-.1,.24-.24,.24h-.32c-.13,0-.24-.11-.24-.24v-2.84c0-.98-.32-1.44-1.05-1.44-.58,.02-1.13,.28-1.52,.71v3.56c0,.13-.1,.24-.24,.24h-.32c-.13,0-.24-.11-.24-.24v-4.75Z" fill="#fafafa"/>
      <path id="s" data-name="Path 35382" d="M183.71,210.18c0,1.76-1.04,2.41-2.16,2.41-.63-.02-1.24-.25-1.72-.67-.08-.08-.1-.2-.05-.3l.21-.32c.07-.12,.2-.12,.32-.01,.33,.33,.77,.52,1.24,.55,.78,0,1.38-.45,1.38-1.65v-.37c-.4,.29-.88,.45-1.37,.46-1.37-.08-2.42-1.25-2.35-2.62,0-.03,0-.05,0-.08-.12-1.37,.89-2.57,2.26-2.69,.02,0,.03,0,.05,0,.54,0,1.06,.2,1.49,.54,.06-.28,.23-.47,.5-.47,.1,0,.19,.07,.19,.18,0,0,0,.02,0,.02v5.03Zm-2.04-.67c.45-.02,.88-.17,1.25-.42v-2.82c-.33-.38-.8-.61-1.3-.62-.96,.08-1.67,.92-1.6,1.88,0,.01,0,.03,0,.04-.1,.98,.61,1.85,1.58,1.95,.02,0,.04,0,.06,0" fill="#fafafa"/>
      <path id="t" data-name="Path 35383" d="M181.31,223.1c0-2.08-.85-3.92-3.73-3.92-1.15-.02-2.29,.26-3.29,.82l.47,1.67c.72-.45,1.55-.69,2.4-.7,1.46,0,1.7,.86,1.7,1.42v.13c-3.19,0-5.2,1.15-5.2,3.49-.04,1.5,1.14,2.74,2.64,2.78,.06,0,.11,0,.17,0,.99,.03,1.95-.41,2.56-1.19h.05s.37,1.59,2.37,.98c-.11-.73-.15-1.47-.14-2.21v-3.27Zm-2.38,2.2c.04,.88-.63,1.63-1.51,1.68-.05,0-.11,0-.16,0-.61,.04-1.14-.42-1.19-1.03,0-.06,0-.12,0-.19,0-1.26,1.33-1.61,2.85-1.6v1.14Z" fill="#fff"/>
      <path id="u" data-name="Path 35384" d="M131.67,216.35s2.08,8.9,2.41,10.35c.39,1.69,1.09,2.31,3.1,1.89l1.3-5.52c.33-1.37,.55-2.35,.76-3.74h.04c.15,1.26,.36,2.51,.63,3.75,0,0,.53,2.51,.8,3.82s1.03,2.14,3,1.69l3.1-12.24h-2.5l-1.06,5.29c-.28,1.54-.54,2.74-.74,4.15h-.03c-.18-1.4-.41-2.55-.7-4.05l-1.1-5.39h-2.61l-1.17,5.25c-.33,1.6-.65,2.89-.84,4.25h-.04c-.2-1.28-.47-2.9-.77-4.45,0,0-.7-3.76-.94-5.05h-2.64Z" fill="#fff"/>
      <path id="v" data-name="Path 35385" d="M153.92,223.1c0-2.08-.85-3.92-3.73-3.92-1.15-.02-2.29,.26-3.29,.82l.47,1.67c.72-.45,1.55-.69,2.4-.7,1.46,0,1.7,.86,1.7,1.42v.13c-3.19,0-5.2,1.15-5.2,3.49-.04,1.5,1.14,2.74,2.64,2.78,.06,0,.11,0,.17,0,.99,.03,1.95-.41,2.56-1.19h.05s.37,1.59,2.37,.98c-.1-.73-.15-1.47-.14-2.21v-3.27Zm-2.38,2.2c0,.17-.02,.34-.06,.5-.22,.7-.87,1.18-1.61,1.18-.61,.04-1.14-.42-1.19-1.03,0-.06,0-.13,0-.19,0-1.26,1.33-1.61,2.85-1.6v1.14Z" fill="#fff"/>
      <path id="w" data-name="Path 35386" d="M157.89,225.99v-9.64h-2.38v12.24h2.38v-2.6Z" fill="#fff"/>
      <path id="x" data-name="Path 35387" d="M189.05,216.35v9.03c-.09,.94,.15,1.88,.7,2.65,.51,.52,1.21,.8,1.94,.77,.58,0,1.17-.09,1.72-.27l-.03-1.94c-.29,.08-.6,.11-.9,.11-.81,0-1.08-.54-1.08-1.66v-3.45h2.07v-2.34h-2.08v-2.89h-2.35Z" fill="#fff"/>
      <path id="y" data-name="Path 35388" d="M182.9,219.4v9.19h2.46v-4.71c0-.23,.01-.45,.05-.68,.13-.96,.97-1.66,1.94-1.62,.24,0,.47,.02,.71,.07v-2.41c-.18-.04-.36-.06-.54-.06-1.14,.05-2.11,.84-2.4,1.94h-.07v-1.73h-2.15Z" fill="#fff"/>
      <path id="z" data-name="Path 35389" d="M159.56,219.4v9.19h2.39v-5.39c0-.26,.03-.51,.11-.75,.19-.66,.77-1.13,1.46-1.18,.96,0,1.42,.85,1.42,2.08v5.24h2.39v-5.46c0-.25,.03-.5,.1-.75,.18-.65,.76-1.11,1.44-1.12,.98,0,1.45,.84,1.45,2.29v5.03h2.39v-5.41c0-2.85-1.39-3.99-2.96-3.99-.62-.01-1.22,.16-1.74,.5-.45,.3-.83,.69-1.12,1.15h-.04c-.37-1.01-1.35-1.67-2.43-1.64-1.06-.05-2.06,.52-2.57,1.46h-.04v-1.25h-2.27Z" fill="#fff"/>
      <path id="aa" data-name="Path 35390" d="M206.37,219.03c.41,.04,.8-.2,.92-.59l.47-5.57c0-.55-.62-1-1.4-1s-1.39,.45-1.39,1l.47,5.57c.13,.39,.51,.64,.92,.59h0Z" fill="#ffc220"/>
      <path id="ab" data-name="Path 35391" d="M203.48,220.77c.24-.34,.23-.8-.03-1.13l-4.39-3.21c-.46-.28-1.14,.06-1.53,.76s-.32,1.49,.13,1.76l4.86,2.36c.3,.12,.72-.11,.96-.54h0Z" fill="#ffc220"/>
      <path id="ac" data-name="Path 35392" d="M209.25,220.77c.24,.43,.65,.66,.95,.54l4.86-2.36c.46-.28,.52-1.06,.14-1.76s-1.08-1.03-1.53-.76l-4.38,3.21c-.26,.33-.27,.79-.03,1.13h0Z" fill="#ffc220"/>
      <path id="ad" data-name="Path 35393" d="M206.37,225.99c.41-.05,.8,.2,.92,.59l.47,5.57c0,.55-.62,1-1.4,1s-1.39-.45-1.39-1l.47-5.57c.13-.39,.51-.64,.92-.59h0Z" fill="#ffc220"/>
      <path id="ae" data-name="Path 35394" d="M209.25,224.25c.24-.43,.65-.66,.95-.54l4.86,2.36c.46,.28,.52,1.06,.14,1.76s-1.08,1.03-1.53,.76l-4.38-3.21c-.26-.33-.27-.79-.03-1.13h0Z" fill="#ffc220"/>
      <path id="af" data-name="Path 35395" d="M203.48,224.25c.24,.34,.23,.81-.03,1.13l-4.39,3.21c-.46,.28-1.14-.06-1.53-.76s-.32-1.49,.13-1.76l4.86-2.36c.3-.12,.72,.11,.96,.54h0Z" fill="#ffc220"/>
      <path id="ag" data-name="Path 35396" d="M225.06,222.38c1.19,.44,1.98,1.57,1.99,2.83,.03,1.84-1.43,3.35-3.27,3.38-.09,0-.18,0-.26,0h-3.94c-.18,0-.32-.15-.32-.33h0v-11.58c0-.18,.14-.33,.32-.33,0,0,0,0,0,0h3.7c1.75-.12,3.27,1.2,3.39,2.95,0,.09,0,.18,0,.26-.01,1.15-.63,2.21-1.63,2.78v.04Zm-1.62,5.04c1.17,.05,2.16-.85,2.21-2.02,0-.07,0-.14,0-.2-.01-1.2-1-2.17-2.2-2.15-.03,0-.06,0-.08,0h-2.88v4.37h2.95Zm-.37-5.58c1.15,.06,2.13-.81,2.2-1.96,0-.07,0-.15,0-.22,.06-1.1-.78-2.05-1.89-2.11-.1,0-.21,0-.31,0h-2.54v4.28h2.54Z" fill="#fff"/>
      <path id="ah" data-name="Path 35397" d="M228.4,220.89c0-.21,.16-.38,.37-.38h.5c.2,.01,.37,.18,.37,.38v4.37c0,1.61,.5,2.34,1.63,2.34,.88-.03,1.69-.46,2.2-1.17v-5.54c0-.2,.15-.37,.35-.38h.52c.2,.02,.35,.19,.35,.38v7.45c.01,.16-.1,.3-.26,.32-.01,0-.03,0-.04,0-.5,0-.77-.39-.82-.93-.6,.69-1.48,1.08-2.4,1.05-2.23,0-2.77-1.4-2.77-3.53v-4.35Z" fill="#fff"/>
      <path id="ai" data-name="Path 35398" d="M236.13,227.81c-.09-.09-.11-.24-.05-.35l.23-.46c.1-.19,.23-.26,.45-.11,.54,.45,1.22,.71,1.93,.72,.79,0,1.32-.38,1.32-1.01,0-.77-.6-1.08-1.73-1.66-1.02-.53-2.2-1.1-2.2-2.48,.02-1.2,1.02-2.15,2.22-2.13,.06,0,.12,0,.18,.01,.78-.01,1.55,.2,2.21,.63,.16,.13,.2,.36,.09,.54h0s-.17,.34-.17,.34c-.09,.18-.31,.26-.5,.16,0,0-.01,0-.02,0h-.02c-.47-.32-1.03-.49-1.59-.49-.86,0-1.14,.51-1.14,.89,0,.72,.54,.98,1.48,1.43,1.34,.65,2.5,1.17,2.5,2.64-.05,1.33-1.17,2.37-2.5,2.32-.04,0-.09,0-.13,0-.95,.01-1.87-.34-2.56-.98" fill="#fff"/>
      <path id="aj" data-name="Path 35399" d="M242.44,217.49c.02-.5,.44-.9,.94-.88s.9,.44,.88,.94c-.02,.49-.42,.88-.91,.88h-.02c-.51-.01-.91-.43-.9-.94m.32,3.41c0-.2,.16-.37,.37-.38h.5c.2,.02,.36,.18,.37,.38v7.31c0,.2-.16,.37-.37,.38h-.5c-.21,0-.37-.18-.37-.38v-7.31Z" fill="#fff"/>
      <path id="ak" data-name="Path 35400" d="M245.86,220.76c-.01-.16,.1-.3,.26-.32,.01,0,.03,0,.04,0,.49,0,.76,.39,.8,.91,.71-.65,1.64-1.01,2.6-1.01,2.25,0,2.8,1.52,2.8,3.6v4.27c0,.2-.16,.37-.37,.38h-.5c-.21,0-.37-.18-.37-.38v-4.44c0-1.54-.5-2.26-1.64-2.26-.91,.03-1.77,.43-2.38,1.12v5.58c0,.2-.16,.37-.37,.38h-.5c-.21,0-.37-.18-.37-.38v-7.45Z" fill="#fff"/>
      <path id="al" data-name="Path 35401" d="M257.4,220.34c1.92-.02,3.48,1.52,3.5,3.44,0,0,0,0,0,0v.23c0,.16-.01,.33-.03,.49,0,.19-.16,.34-.35,.35h-5.63c0,1.43,1.1,2.63,2.53,2.76,.75,0,1.49-.22,2.1-.66,.27-.19,.39-.26,.59,.05l.2,.3c.15,.25,.22,.33-.07,.56-.82,.61-1.81,.94-2.83,.93-2.35,0-3.76-1.92-3.76-4.23s1.41-4.21,3.76-4.21m2.26,3.48c0-1.26-1.01-2.28-2.26-2.31-1.3,.03-2.37,1.02-2.5,2.31h4.76Z" fill="#fff"/>
      <path id="am" data-name="Path 35402" d="M262.17,227.81c-.09-.09-.11-.24-.05-.35l.23-.46c.1-.19,.23-.26,.45-.11,.54,.45,1.22,.71,1.93,.72,.79,0,1.32-.38,1.32-1.01,0-.77-.6-1.08-1.73-1.66-1.02-.53-2.2-1.1-2.2-2.48,.02-1.2,1.02-2.15,2.22-2.13,.06,0,.12,0,.18,.01,.78-.01,1.55,.2,2.21,.63,.16,.13,.2,.36,.09,.54h0s-.17,.34-.17,.34c-.09,.18-.31,.26-.5,.16,0,0-.01,0-.02,0h-.02c-.47-.32-1.03-.48-1.59-.49-.86,0-1.14,.51-1.14,.89,0,.72,.54,.98,1.48,1.43,1.34,.65,2.5,1.17,2.5,2.64-.05,1.33-1.17,2.37-2.5,2.32-.04,0-.09,0-.13,0-.95,.01-1.87-.34-2.56-.98" fill="#fff"/>
      <path id="an" data-name="Path 35403" d="M268.61,227.81c-.09-.09-.11-.24-.05-.35l.23-.46c.1-.19,.23-.26,.45-.11,.54,.45,1.22,.71,1.93,.72,.79,0,1.32-.38,1.32-1.01,0-.77-.6-1.08-1.73-1.66-1.02-.53-2.2-1.1-2.2-2.48,.02-1.2,1.02-2.15,2.22-2.13,.06,0,.12,0,.18,.01,.78-.01,1.55,.2,2.21,.63,.16,.13,.2,.36,.09,.54h0s-.17,.34-.17,.34c-.09,.18-.31,.26-.5,.16,0,0-.01,0-.02,0h-.02c-.47-.32-1.03-.49-1.59-.49-.85,0-1.14,.51-1.14,.89,0,.72,.54,.98,1.47,1.43,1.34,.65,2.5,1.17,2.5,2.64-.05,1.33-1.17,2.37-2.5,2.32-.04,0-.09,0-.13,0-.95,.01-1.87-.34-2.56-.98" fill="#fff"/>
    </g>
  </g>
</svg>